<?xml version="1.0" encoding="utf-8"?>
<!-- Generator: Adobe Illustrator 25.3.0, SVG Export Plug-In . SVG Version: 6.00 Build 0)  -->
<svg version="1.1" id="레이어_1" xmlns="http://www.w3.org/2000/svg" xmlns:xlink="http://www.w3.org/1999/xlink" x="0px"
	 y="0px" viewBox="0 0 289.9 35" style="enable-background:new 0 0 289.9 35;" xml:space="preserve">
<style type="text/css">
	.st0{fill:#FFFFFF;}
	.st1{enable-background:new    ;}
	.st2{fill:#1D63A3;}
</style>
<g id="LOGO" transform="translate(-605 -360)">
	<g id="그룹_4" transform="translate(605 360)">
		<g id="그룹_1" transform="translate(3.752 0.471)">
			<g id="패스_1">
				<path class="st0" d="M3.6,3.8c-0.1,0.4-0.2,0.7-0.5,1C2.8,5,2.4,5.1,2.1,5.1c-0.4,0-0.9-0.2-1.2-0.5C0.7,4.5,0.6,4.2,0.6,4
					C0.5,3.6,0.5,3.2,0.5,2.8c0-0.5,0-0.7,0-0.9c0-0.4,0.2-0.7,0.4-0.9C1.2,0.7,1.6,0.5,2,0.5s0.7,0.1,1,0.4s0.5,0.6,0.5,1H3.1
					c0-0.3-0.2-0.5-0.4-0.7C2.6,1,2.3,0.9,2.1,0.9C1.8,0.9,1.5,1,1.3,1.3C1.2,1.4,1.1,1.6,1,1.8c0,0.7,0,1.4,0,2
					C1,4,1.1,4.2,1.3,4.3c0.4,0.4,1,0.4,1.5,0.1C3,4.2,3.1,4,3.2,3.8H3.6z"/>
			</g>
			<g id="패스_2">
				<path class="st0" d="M8.9,2.8c0,0.5,0,0.7,0,0.9c0,0.4-0.2,0.7-0.4,1c-0.6,0.6-1.7,0.6-2.3,0C6,4.5,5.9,4.2,5.9,4
					c0-0.4-0.1-0.8-0.1-1.2c0-0.5,0-0.7,0-0.9C5.8,1.6,6,1.2,6.2,1c0.6-0.6,1.7-0.6,2.3,0c0.2,0.2,0.3,0.4,0.4,0.7
					C8.9,2.1,9,2.4,8.9,2.8z M8.5,2.8c0-0.3,0-0.7-0.1-1c0-0.2-0.1-0.4-0.3-0.5C7.7,0.8,7,0.8,6.6,1.3l0,0C6.5,1.4,6.4,1.6,6.3,1.8
					c0,0.3-0.1,0.7,0,1c0,0.4,0,0.7,0,1c0,0.2,0.1,0.4,0.3,0.5c0.4,0.4,1.1,0.4,1.6,0l0,0C8.3,4.2,8.4,4,8.4,3.8
					C8.5,3.5,8.5,3.2,8.5,2.8L8.5,2.8z"/>
			</g>
			<g id="패스_3">
				<path class="st0" d="M14.1,3.8c0,0.4-0.1,0.7-0.4,0.9C13.4,4.9,13,5.1,12.6,5c-0.3,0-0.6,0-0.9-0.1c-0.3-0.1-0.5-0.3-0.7-0.5
					l0.3-0.3c0.2,0.2,0.4,0.3,0.6,0.4c0.2,0.1,0.4,0.1,0.7,0.1s0.6-0.1,0.8-0.2c0.2-0.2,0.3-0.4,0.3-0.6c0-0.3-0.1-0.6-0.4-0.7
					c-0.1,0-0.2-0.1-0.4-0.1h-0.6c-0.3,0-0.6-0.2-0.8-0.3c-0.2-0.2-0.4-0.5-0.3-0.8c0-0.4,0.1-0.7,0.4-0.9c0.3-0.2,0.7-0.4,1.1-0.3
					c0.2,0,0.5,0,0.7,0.1S13.8,1,14,1.2l-0.3,0.3c-0.1-0.1-0.3-0.2-0.5-0.3c-0.2-0.1-0.4-0.1-0.6-0.1c-0.2,0-0.5,0.1-0.7,0.2
					c-0.2,0.2-0.3,0.4-0.2,0.6c0,0.2,0.1,0.4,0.2,0.5c0.1,0.1,0.2,0.1,0.3,0.2c0.1,0,0.2,0.1,0.3,0.1L13,2.8c0.2,0,0.3,0.1,0.5,0.1
					c0.1,0,0.2,0.1,0.3,0.2C14,3.2,14.1,3.5,14.1,3.8z"/>
			</g>
			<g id="패스_4">
				<path class="st0" d="M20.2,5.1h-0.5V1.6l-1.2,2.7h-0.4l-1.2-2.7V5h-0.5V0.5h0.5l1.5,3.2l1.4-3.2h0.5L20.2,5.1z"/>
			</g>
			<g id="패스_5">
				<path class="st0" d="M25.6,5.1h-2.8V0.5h2.8V1h-2.3v1.6h2V3h-2v1.6h2.3V5.1z"/>
			</g>
			<g id="패스_6">
				<path class="st0" d="M30.5,1h-1.3v4.1h-0.5V1h-1.3V0.5h3.1L30.5,1z"/>
			</g>
			<g id="패스_7">
				<path class="st0" d="M33.1,5.1h-0.5V0.5h0.5V5.1z"/>
			</g>
			<g id="패스_8">
				<path class="st0" d="M38.7,3.8c0,0.4-0.2,0.7-0.5,1c-0.3,0.2-0.7,0.4-1,0.4c-0.4,0-0.8-0.2-1.2-0.5c-0.2-0.2-0.3-0.4-0.4-0.7
					c0-0.4-0.1-0.8-0.1-1.2c0-0.5,0-0.7,0-0.9c0-0.4,0.2-0.7,0.4-0.9c0.3-0.3,0.7-0.5,1.2-0.5c0.4,0,0.7,0.1,1,0.3
					c0.3,0.3,0.5,0.6,0.5,1h-0.5c0-0.3-0.2-0.5-0.4-0.7S37.3,0.9,37,0.9S36.4,1,36.2,1.2c-0.1,0.1-0.2,0.3-0.3,0.5
					C36,2.4,36,3.1,36,3.8c0,0.2,0.1,0.4,0.3,0.5c0.2,0.2,0.5,0.3,0.8,0.3s0.5-0.1,0.7-0.2C38,4.2,38.1,4,38.2,3.8H38.7z"/>
			</g>
			<g id="패스_9">
				<path class="st0" d="M43.7,3.8c0,0.4-0.1,0.7-0.4,0.9C43,5,42.6,5.1,42.2,5.1c-0.3,0-0.6,0-0.9-0.1c-0.3-0.1-0.5-0.3-0.7-0.5
					l0.3-0.3c0.2,0.2,0.3,0.3,0.5,0.4s0.5,0.1,0.7,0.1c0.3,0,0.5-0.1,0.8-0.2c0.2-0.2,0.3-0.4,0.3-0.6c0-0.3-0.2-0.6-0.4-0.7
					c-0.1,0-0.2-0.1-0.4-0.1L41.9,3c-0.3,0-0.6-0.2-0.8-0.3c-0.2-0.2-0.4-0.5-0.3-0.8c0-0.4,0.1-0.7,0.4-0.9
					c0.3-0.2,0.7-0.4,1.1-0.3c0.2,0,0.5,0,0.7,0.1s0.4,0.2,0.6,0.4l-0.3,0.3c-0.1-0.1-0.3-0.2-0.5-0.3c-0.2-0.1-0.4-0.1-0.6-0.1
					c-0.2,0-0.5,0.1-0.7,0.2c-0.2,0.2-0.3,0.4-0.2,0.6c0,0.2,0.1,0.4,0.2,0.5c0.1,0.1,0.2,0.1,0.3,0.2c0.1,0,0.2,0.1,0.3,0.1
					l0.5,0.1c0.2,0,0.3,0.1,0.5,0.1c0.1,0,0.2,0.1,0.3,0.2C43.6,3.2,43.7,3.5,43.7,3.8z"/>
			</g>
			<g id="패스_10">
				<path class="st0" d="M51.9,1.9c0,0.4-0.1,0.7-0.4,1c-0.3,0.2-0.6,0.4-1,0.4h-1.2v1.9h-0.5V0.5h1.7c0.4,0,0.7,0.1,1,0.4
					C51.8,1.1,51.9,1.5,51.9,1.9z M51.4,1.9c0-0.2-0.1-0.5-0.3-0.7C51,1,50.7,1,50.5,1h-1.2v1.8h1.2c0.2,0,0.5-0.1,0.7-0.2
					C51.3,2.4,51.5,2.1,51.4,1.9L51.4,1.9z"/>
			</g>
			<g id="패스_11">
				<path class="st0" d="M56.9,5.1h-2.8V0.5h0.5v4.1h2.3V5.1z"/>
			</g>
			<g id="패스_12">
				<path class="st0" d="M62.2,5.1h-0.5l-0.3-1h-2l-0.4,1h-0.5l1.7-4.5h0.4L62.2,5.1z M61.1,3.6l-0.8-2.4l-0.8,2.4H61.1z"/>
			</g>
			<g id="패스_13">
				<path class="st0" d="M66.8,1h-1.3v4.1H65V1h-1.3V0.5h3.1V1z"/>
			</g>
			<g id="패스_14">
				<path class="st0" d="M71.7,1h-2.3v1.7h2v0.4h-2v2h-0.5V0.5h2.8V1z"/>
			</g>
			<g id="패스_15">
				<path class="st0" d="M76.8,2.8c0,0.5,0,0.7,0,0.9c0,0.3-0.2,0.7-0.4,0.9c-0.6,0.6-1.7,0.6-2.3,0c-0.2-0.2-0.3-0.4-0.4-0.7
					c-0.1-0.4-0.1-0.8-0.1-1.2c0-0.5,0-0.7,0-0.9c0-0.4,0.2-0.7,0.4-0.9c0.6-0.6,1.7-0.6,2.3,0c0.2,0.2,0.3,0.4,0.4,0.7
					C76.8,2.1,76.8,2.4,76.8,2.8z M76.3,2.8c0-0.3,0-0.7-0.1-1c0-0.2-0.1-0.4-0.3-0.5c-0.4-0.4-1.1-0.4-1.6,0l0,0
					c-0.1,0.1-0.2,0.3-0.3,0.5c0,0.3-0.1,0.7-0.1,1s0,0.7,0.1,1c0,0.2,0.1,0.4,0.3,0.5c0.4,0.4,1.1,0.4,1.6,0l0,0
					C76,4.2,76.1,4,76.2,3.8C76.3,3.5,76.3,3.2,76.3,2.8L76.3,2.8z"/>
			</g>
			<g id="패스_16">
				<path class="st0" d="M82.4,5.1h-0.6l-1-2h-1.1v2h-0.5V0.5H81c0.3,0,0.7,0.1,1,0.3c0.2,0.2,0.4,0.6,0.4,0.9s-0.1,0.6-0.3,0.8
					C81.9,2.8,81.6,3,81.3,3L82.4,5.1z M81.8,1.8c0-0.2-0.1-0.5-0.2-0.6C81.4,1,81.2,1,80.9,1h-1.2v1.7h1.2c0.2,0,0.5-0.1,0.7-0.2
					C81.7,2.3,81.8,2,81.8,1.8L81.8,1.8z"/>
			</g>
			<g id="패스_17">
				<path class="st0" d="M88.5,5.1H88V1.6l-1.2,2.7h-0.4l-1.2-2.7V5h-0.5V0.5h0.5l1.5,3.2l1.4-3.2h0.5C88.5,0.5,88.5,5.1,88.5,5.1z"
					/>
			</g>
		</g>
		<g id="그룹_2" transform="translate(0 7.709)">
			<g id="패스_18">
				<path class="st0" d="M18.2,22.9c-2,0.9-4.3,1.3-6.5,1.2c-3.1,0.2-6-1-8.2-3.1c-2.1-2.2-3.2-5.2-3-8.2C0.3,9.5,1.6,6.3,3.9,3.9
					c2.3-2.3,5.5-3.5,8.8-3.4c1.9-0.1,3.8,0.2,5.6,0.8v4.9c-1.6-0.9-3.4-1.4-5.2-1.4c-1.9-0.1-3.8,0.7-5.2,2c-1.4,1.5-2.1,3.5-2,5.5
					c-0.1,1.9,0.6,3.8,1.9,5.3c1.3,1.3,3.1,2,5,2s3.8-0.5,5.5-1.5L18.2,22.9z"/>
			</g>
			<g id="패스_19">
				<path class="st0" d="M31,24.1c-3,0.1-5.9-1-8-3.2s-3.2-5.2-3.1-8.3c-0.1-3.2,1-6.3,3.1-8.7c2.1-2.2,5.2-3.5,8.3-3.3
					c3-0.1,5.8,1,7.9,3.2c2.1,2.3,3.2,5.3,3,8.4c0.2,3.2-1,6.3-3.1,8.6C37,23,34.1,24.2,31,24.1z M31.2,4.9c-1.7-0.1-3.3,0.7-4.3,2
					c-1.1,1.5-1.7,3.4-1.6,5.4c-0.1,1.9,0.5,3.8,1.6,5.3c1,1.3,2.5,2,4.2,2c1.6,0.1,3.2-0.6,4.2-1.9c1.1-1.5,1.7-3.4,1.6-5.3
					c0.1-1.9-0.4-3.9-1.5-5.5C34.4,5.6,32.9,4.9,31.2,4.9L31.2,4.9z"/>
			</g>
			<g id="패스_20">
				<path class="st0" d="M44.2,22.8v-5.1c0.9,0.8,1.9,1.3,3,1.7c1,0.4,2.2,0.6,3.3,0.6c0.6,0,1.1,0,1.7-0.2c0.4-0.1,0.8-0.3,1.2-0.5
					c0.3-0.2,0.5-0.4,0.7-0.7c0.2-0.3,0.2-0.6,0.2-0.9c0-0.4-0.1-0.9-0.4-1.2c-0.3-0.4-0.6-0.7-1-1c-0.5-0.3-1-0.6-1.6-0.9
					c-0.6-0.3-1.2-0.6-2-0.8c-1.5-0.6-2.9-1.5-4-2.7C44.4,10,44,8.6,44,7.2c0-1.1,0.2-2.1,0.7-3.1c0.5-0.8,1.1-1.6,2-2.1
					c0.9-0.6,1.8-1,2.8-1.2c1.1-0.3,2.3-0.4,3.4-0.4c1,0,2.1,0.1,3.2,0.2c0.9,0.1,1.7,0.3,2.5,0.7v4.8c-0.4-0.3-0.8-0.5-1.2-0.7
					C56.9,5.2,56.5,5,56,4.9s-0.9-0.2-1.4-0.3c-0.4-0.1-0.9-0.1-1.3-0.1c-0.5,0-1.1,0.1-1.6,0.2c-0.4,0.1-0.8,0.2-1.2,0.5
					c-0.3,0.2-0.6,0.4-0.8,0.7c-0.2,0.3-0.3,0.6-0.3,0.9c0,0.4,0.1,0.7,0.3,1c0.2,0.3,0.5,0.6,0.9,0.9C51.1,9,51.5,9.3,52,9.5
					c0.5,0.3,1.1,0.5,1.8,0.8c0.8,0.4,1.7,0.8,2.5,1.2c0.7,0.4,1.3,0.9,1.9,1.4c0.5,0.5,0.9,1.2,1.2,1.9c0.6,1.8,0.5,3.9-0.3,5.6
					c-0.5,0.9-1.1,1.6-2,2.1c-0.9,0.6-1.9,1-2.9,1.1c-1.1,0.2-2.3,0.4-3.5,0.4s-2.4-0.1-3.6-0.3C46.1,23.6,45.1,23.2,44.2,22.8z"/>
			</g>
		</g>
		<g id="패스_21">
			<path class="st0" d="M110.5,0.7c-4.4,0-8,1.3-10.5,3.8c-2.2,2.2-3.6,5.1-4.2,8.1C99.2,7.9,106.3,8,106.3,8
				c11-0.3,14.4-5.5,15.3-7.4L110.5,0.7L110.5,0.7z"/>
		</g>
		<g id="그룹_3" transform="translate(94.998 0)">
			<g id="패스_22">
				<path class="st0" d="M4.2,3.8c1.5-1.5,3.4-2.6,5.5-3.3H0.5v9.3C1.3,7.5,2.5,5.5,4.2,3.8z"/>
			</g>
			<g id="패스_23">
				<path class="st0" d="M18,8.3L8.6,30.7h3.2L21.5,7C20.4,7.5,19.2,7.9,18,8.3z"/>
			</g>
		</g>
		<g id="패스_24">
			<path class="st0" d="M107.5,9.2L96.8,34.5h3.2l10.8-25.8L107.5,9.2z"/>
		</g>
		<g id="패스_25">
			<path class="st0" d="M98,26.7h-5.6v-18h-5.2l-11.3,18h-7.5c0.4-0.3,0.8-0.7,1.2-1s0.8-0.6,1.3-1c1.3-0.9,2.5-1.9,3.9-2.9
				c1.3-0.9,2.4-2,3.4-3.3s1.6-2.9,1.6-4.6c0-1.1-0.2-2.1-0.7-3C78.7,10,78,9.3,77.2,8.7s-1.8-1.1-2.7-1.3c-1.1-0.3-2.2-0.5-3.3-0.5
				c-2.1-0.1-4.2,0.6-5.9,1.8c-0.8,0.6-1.5,1.3-2,2.1c-0.5,0.9-0.9,1.9-1.1,2.9l4.8,1c0.2-1,0.7-1.9,1.4-2.7
				c0.8-0.7,1.9-1.1,2.9-1.1c0.8,0,1.7,0.2,2.4,0.7c0.6,0.5,1,1.3,0.9,2.1c0,0.6-0.2,1.1-0.5,1.6c-0.4,0.6-0.8,1.1-1.3,1.6
				s-1,1-1.6,1.5c-0.6,0.4-1,0.8-1.4,1.1c-0.9,0.7-1.8,1.3-2.6,2c-0.8,0.6-1.6,1.2-2.3,1.8c-0.7,0.5-1.3,1.1-1.8,1.7
				c-0.4,0.5-0.7,1.1-0.9,1.7v4.2H87v2.4h5.4v-2.4h3.8L98,26.7z M81.2,26.8l5.9-10.2v10.2H81.2z"/>
		</g>
	</g>
</g>
<g class="st1">
	<path class="st2" d="M141.1-26.1c0,1.9-0.7,3.4-2.1,4.4c-1.4,1.1-3.2,1.6-5.6,1.6h-8.6v-21h7.8c2.5,0,4.3,0.5,5.5,1.4
		c1.2,0.9,1.8,2.2,1.8,3.9c0,0.9-0.2,1.8-0.7,2.6c-0.4,0.8-1.2,1.4-2.1,1.9C139.8-30.4,141.1-28.7,141.1-26.1z M129.4-32.2h3
		c1,0,1.8-0.2,2.3-0.7s0.8-1.1,0.8-2c0-1.6-1.1-2.4-3.2-2.4h-2.9L129.4-32.2L129.4-32.2z M135.6-24.4c0.6-0.5,0.9-1.2,0.9-2
		c0-0.9-0.3-1.5-0.8-2c-0.6-0.4-1.4-0.7-2.4-0.7h-3.8v5.4h3.7C134.2-23.7,135-23.9,135.6-24.4z"/>
	<path class="st2" d="M148.3-41.8c0.5,0.4,0.7,1,0.7,1.7c0,0.7-0.2,1.3-0.7,1.7c-0.5,0.4-1.1,0.6-1.8,0.6s-1.3-0.2-1.8-0.6
		c-0.5-0.4-0.7-0.9-0.7-1.7c0-0.7,0.2-1.3,0.7-1.7c0.5-0.4,1.1-0.6,1.8-0.6S147.8-42.2,148.3-41.8z M148.6-20h-4.2v-15.8h4.2V-20z"
		/>
	<path class="st2" d="M164.1-32.8l-7.3,9.2h7.7v3.6h-12.7v-2.8l7.3-9.4H152v-3.5h12.1V-32.8z"/>
	<path class="st2" d="M171.4-23.8c0.4,0.4,0.6,1,0.6,1.7s-0.2,1.3-0.6,1.8c-0.4,0.4-1,0.6-1.7,0.6s-1.3-0.2-1.7-0.6s-0.6-1-0.6-1.8
		c0-0.7,0.2-1.3,0.6-1.7c0.4-0.4,1-0.6,1.7-0.6S171-24.2,171.4-23.8z"/>
</g>
<g class="st1">
	<path class="st2" d="M192.1-35.3c1,0.6,1.8,1.5,2.4,2.7c0.6,1.2,0.9,2.6,0.9,4.3c0,1.8-0.3,3.4-1,4.7s-1.6,2.3-2.7,3
		c-1.1,0.7-2.4,1.1-3.8,1.1c-1.3,0-2.4-0.3-3.3-0.8v6.5h-4.2v-22h3l0.7,1.9h0.1c0.6-0.8,1.3-1.4,2.1-1.8c0.7-0.4,1.6-0.6,2.6-0.6
		C190.1-36.2,191.1-35.9,192.1-35.3z M186.1-32c-0.5,0.3-1,0.8-1.4,1.5v6.8c0.3,0.3,0.7,0.5,1.1,0.6c0.4,0.1,0.9,0.2,1.4,0.2
		c1.1,0,2-0.4,2.8-1.3s1.1-2.1,1.1-3.6s-0.3-2.7-0.9-3.4c-0.6-0.8-1.4-1.1-2.4-1.1C187.2-32.5,186.6-32.4,186.1-32z"/>
	<path class="st2" d="M209.8-35.3c1.2,0.6,2.2,1.5,3,2.8c0.8,1.3,1.1,2.8,1.1,4.6c0,1.8-0.4,3.4-1.1,4.6s-1.7,2.2-3,2.8
		c-1.2,0.6-2.6,0.9-4,0.9s-2.8-0.3-4-0.9s-2.2-1.5-3-2.8s-1.1-2.8-1.1-4.6c0-1.8,0.4-3.4,1.1-4.6c0.7-1.2,1.7-2.2,3-2.8
		c1.2-0.6,2.5-0.9,4-0.9C207.2-36.2,208.5-35.9,209.8-35.3z M203-31.3c-0.7,0.8-1,1.9-1,3.4s0.3,2.6,1,3.4s1.6,1.2,2.8,1.2
		s2.1-0.4,2.8-1.2c0.7-0.8,1-1.9,1-3.4s-0.3-2.6-1-3.4c-0.7-0.8-1.6-1.2-2.8-1.2S203.6-32.1,203-31.3z"/>
</g>
<g class="st1">
	<path class="st2" d="M216.9-35.8h3.2l0.7,2.3h0.1c0.4-1,1-1.7,1.6-2.2s1.3-0.6,2.2-0.6c0.8,0,1.5,0.2,2,0.5l-0.8,3.8
		c-0.5-0.2-1-0.4-1.5-0.4c-0.7,0-1.4,0.3-1.9,0.8c-0.6,0.5-1,1.3-1.4,2.5v9h-4.2L216.9-35.8L216.9-35.8z"/>
</g>
<g class="st1">
	<path class="st2" d="M232.4-20.6c-0.7-0.7-1.1-1.8-1.1-3.2v-8.4H229v-3.6h2.4v-1.8l1.8-2.2h2.4v4.1h3.8v3.6h-3.8v7.4
		c0,0.9,0.4,1.3,1.2,1.3c0.7,0,1.4-0.1,2-0.4l1,3c-1.3,0.8-2.7,1.2-4.2,1.2C234.2-19.6,233.2-19.9,232.4-20.6z"/>
	<path class="st2" d="M256.8-23l-0.3,2.8c-0.5,0.4-1.2,0.6-2.2,0.6c-1.6,0-2.5-0.7-2.9-2.1c-1.2,1.5-2.8,2.2-4.7,2.2
		c-1,0-1.8-0.2-2.7-0.6c-0.8-0.4-1.5-0.9-1.9-1.7c-0.5-0.7-0.7-1.6-0.7-2.6c0-1.5,0.6-2.7,1.8-3.6s2.7-1.2,4.5-1.2
		c0.5,0,1.1,0,1.8,0.1c0.6,0.1,1.1,0.1,1.5,0.2v-1.3c0-1.8-1-2.7-3.1-2.7c-0.7,0-1.5,0.1-2.2,0.4s-1.3,0.6-1.9,1l-1.6-2.6
		c0.8-0.7,1.8-1.2,2.9-1.6c1.1-0.4,2.2-0.6,3.4-0.6c2.2,0,3.9,0.5,5,1.5s1.7,2.5,1.7,4.3v6.3c0,0.8,0.3,1.1,0.9,1.1
		C256.3-23,256.6-23,256.8-23z M249.6-23.2c0.6-0.3,1.1-0.8,1.4-1.4v-1.7c-1-0.2-1.9-0.4-2.8-0.4c-0.8,0-1.5,0.2-2,0.5
		s-0.8,0.8-0.8,1.5c0,0.6,0.2,1.1,0.7,1.4c0.4,0.3,1,0.5,1.6,0.5C248.3-22.7,249-22.8,249.6-23.2z"/>
	<path class="st2" d="M263.6-20h-4.2v-22.6h4.2V-20z"/>
</g>
<text transform="matrix(1 0 0 1 119.9238 -62.954)" style="font-family:'MotivaSans-Bold'; font-size:33.8221px;">Biz. portal</text>
<g>
	<path class="st0" d="M140.5,24.9c0,1.8-0.7,3.3-2,4.3c-1.3,1-3.1,1.5-5.4,1.5h-8.3V10.4h7.5c2.4,0,4.1,0.4,5.3,1.3s1.7,2.1,1.7,3.8
		c0,0.9-0.2,1.7-0.6,2.5c-0.4,0.8-1.1,1.4-2.1,1.9C139.2,20.7,140.5,22.3,140.5,24.9z M129.1,18.9h2.9c1,0,1.7-0.2,2.2-0.7
		c0.5-0.5,0.8-1.1,0.8-1.9c0-1.6-1-2.3-3.1-2.3h-2.8V18.9z M135.1,26.5c0.6-0.5,0.8-1.1,0.8-1.9c0-0.8-0.3-1.5-0.8-1.9
		c-0.5-0.4-1.3-0.7-2.3-0.7h-3.7v5.2h3.6C133.7,27.2,134.6,26.9,135.1,26.5z"/>
	<path class="st0" d="M157.6,27.8l-0.3,2.7c-0.4,0.4-1.2,0.6-2.1,0.6c-1.5,0-2.4-0.7-2.8-2c-1.2,1.4-2.7,2.1-4.6,2.1
		c-0.9,0-1.8-0.2-2.6-0.6c-0.8-0.4-1.4-0.9-1.9-1.6s-0.7-1.5-0.7-2.5c0-1.5,0.6-2.6,1.7-3.4c1.1-0.8,2.6-1.2,4.3-1.2
		c0.5,0,1.1,0,1.7,0.1c0.6,0.1,1.1,0.1,1.4,0.2V21c0-1.8-1-2.6-3-2.6c-0.7,0-1.4,0.1-2.1,0.4c-0.7,0.3-1.3,0.6-1.9,1l-1.5-2.5
		c0.8-0.7,1.7-1.2,2.8-1.6c1.1-0.4,2.2-0.6,3.3-0.6c2.1,0,3.8,0.5,4.8,1.5c1.1,1,1.6,2.4,1.6,4.2v6.1c0,0.7,0.3,1.1,0.8,1.1
		C157.1,27.9,157.4,27.8,157.6,27.8z M150.6,27.7c0.6-0.3,1-0.8,1.3-1.3v-1.7c-0.9-0.2-1.8-0.3-2.7-0.3c-0.8,0-1.4,0.2-1.9,0.5
		c-0.5,0.3-0.8,0.8-0.8,1.5c0,0.6,0.2,1.1,0.6,1.4c0.4,0.3,0.9,0.5,1.6,0.5C149.4,28.1,150,28,150.6,27.7z"/>
	<path class="st0" d="M169.7,15.5c0.9,0.3,1.8,0.8,2.5,1.4l-1.6,2.8c-1-0.8-2.1-1.2-3.4-1.2c-1.2,0-2.2,0.4-2.9,1.2
		s-1.1,1.9-1.1,3.3s0.4,2.5,1.1,3.4s1.7,1.3,2.9,1.3c0.7,0,1.3-0.1,1.9-0.3c0.6-0.2,1.2-0.6,1.7-1l1.7,2.6c-0.7,0.7-1.5,1.2-2.5,1.6
		s-2,0.6-3.2,0.6c-1.5,0-2.8-0.3-4-1c-1.2-0.6-2.1-1.6-2.8-2.8s-1-2.7-1-4.4c0-1.7,0.3-3.1,1-4.3c0.7-1.2,1.6-2.1,2.8-2.7
		c1.2-0.6,2.5-0.9,3.9-0.9C167.7,15,168.7,15.2,169.7,15.5z"/>
	<path class="st0" d="M184.8,30.7l-4.3-6.1l-1.5,1.7v4.4h-4.1V8.9h4.1v12.6l4.9-6h4.8l-5.7,6.2l6.5,9H184.8z"/>
	<path class="st0" d="M213.9,11.1c1.5,0.8,2.8,1.9,3.7,3.5c0.9,1.6,1.4,3.5,1.4,5.9c0,2.3-0.5,4.3-1.4,5.9c-0.9,1.6-2.2,2.8-3.7,3.6
		c-1.5,0.8-3.2,1.2-5,1.2c-1.8,0-3.4-0.4-5-1.2c-1.5-0.8-2.8-2-3.7-3.6c-0.9-1.6-1.4-3.6-1.4-5.9c0-2.3,0.5-4.3,1.4-5.9
		c0.9-1.6,2.2-2.7,3.7-3.5s3.2-1.1,5-1.1C210.7,9.9,212.3,10.3,213.9,11.1z M204.8,15.5c-1,1.1-1.6,2.8-1.6,4.9
		c0,1.5,0.2,2.7,0.7,3.7c0.5,1,1.1,1.8,2,2.3c0.8,0.5,1.8,0.8,2.9,0.8c1.1,0,2-0.3,2.9-0.8c0.9-0.5,1.5-1.3,2-2.3
		c0.5-1,0.7-2.3,0.7-3.7c0-2.1-0.5-3.8-1.6-4.9s-2.4-1.7-4.1-1.7S205.9,14.4,204.8,15.5z"/>
	<path class="st0" d="M231.5,8.9l-0.6,2.9c-0.5-0.1-1-0.2-1.6-0.2c-1.3,0-1.9,0.6-1.9,1.8v2.1h3.4V19h-3.4v11.7h-4.1V19h-2.1v-3.5
		h2.1v-2.2c0-1.5,0.5-2.7,1.4-3.6c0.9-0.9,2.2-1.3,4-1.3C229.9,8.4,230.8,8.6,231.5,8.9z"/>
	<path class="st0" d="M242.7,8.9l-0.6,2.9c-0.5-0.1-1-0.2-1.6-0.2c-1.3,0-1.9,0.6-1.9,1.8v2.1h3.4V19h-3.4v11.7h-4.1V19h-2.1v-3.5
		h2.1v-2.2c0-1.5,0.5-2.7,1.4-3.6c0.9-0.9,2.2-1.3,4-1.3C241,8.4,242,8.6,242.7,8.9z M249.3,9.7c0.5,0.4,0.7,0.9,0.7,1.6
		c0,0.7-0.2,1.3-0.7,1.6s-1,0.6-1.7,0.6c-0.7,0-1.2-0.2-1.7-0.6s-0.7-0.9-0.7-1.6c0-0.7,0.2-1.3,0.7-1.6s1-0.6,1.7-0.6
		C248.2,9.1,248.8,9.3,249.3,9.7z M249.6,30.7h-4.1V15.5h4.1V30.7z"/>
	<path class="st0" d="M263.3,15.5c0.9,0.3,1.8,0.8,2.5,1.4l-1.6,2.8c-1-0.8-2.1-1.2-3.4-1.2c-1.2,0-2.2,0.4-2.9,1.2
		s-1.1,1.9-1.1,3.3s0.4,2.5,1.1,3.4s1.7,1.3,2.9,1.3c0.7,0,1.3-0.1,1.9-0.3c0.6-0.2,1.2-0.6,1.7-1l1.7,2.6c-0.7,0.7-1.5,1.2-2.5,1.6
		s-2,0.6-3.2,0.6c-1.5,0-2.8-0.3-4-1c-1.2-0.6-2.1-1.6-2.8-2.8s-1-2.7-1-4.4c0-1.7,0.3-3.1,1-4.3c0.7-1.2,1.6-2.1,2.8-2.7
		c1.2-0.6,2.5-0.9,3.9-0.9C261.4,15,262.4,15.2,263.3,15.5z"/>
	<path class="st0" d="M279.9,26.5l1.5,2.6c-1.7,1.3-3.8,2-6.4,2c-1.5,0-2.8-0.3-4-0.9c-1.2-0.6-2.1-1.5-2.8-2.7
		c-0.7-1.2-1-2.7-1-4.4c0-1.6,0.3-3,0.9-4.2c0.6-1.2,1.5-2.2,2.6-2.9s2.4-1,3.9-1c1.5,0,2.8,0.3,3.8,1c1,0.7,1.8,1.5,2.3,2.6
		c0.5,1.1,0.8,2.3,0.8,3.5c0,0.8-0.1,1.6-0.2,2.2h-10c0.4,2.4,1.8,3.6,4.2,3.6C277.1,28,278.6,27.5,279.9,26.5z M271.3,21.7h6.6
		c0-1.2-0.3-2.1-0.8-2.7c-0.5-0.6-1.3-0.9-2.2-0.9C272.7,18.1,271.5,19.3,271.3,21.7z"/>
</g>
<g id="LOGO_1_" transform="translate(-605 -360)">
	<g id="그룹_4_1_" transform="translate(605 360)">
		<g id="그룹_1_1_" transform="translate(3.752 0.471)">
			<g id="패스_1_1_">
				<path class="st0" d="M3.6,75.5c-0.1,0.4-0.2,0.7-0.5,1c-0.3,0.2-0.7,0.3-1,0.3c-0.4,0-0.9-0.2-1.2-0.5c-0.2-0.1-0.3-0.4-0.3-0.6
					c-0.1-0.4-0.1-0.8-0.1-1.2c0-0.5,0-0.7,0-0.9c0-0.4,0.2-0.7,0.4-0.9c0.3-0.3,0.7-0.5,1.1-0.5s0.7,0.1,1,0.4
					c0.3,0.3,0.5,0.6,0.5,1H3.1c0-0.3-0.2-0.5-0.4-0.7c-0.1-0.2-0.4-0.3-0.6-0.3c-0.3,0-0.6,0.1-0.8,0.4c-0.1,0.1-0.2,0.3-0.3,0.5
					c0,0.7,0,1.4,0,2c0,0.2,0.1,0.4,0.3,0.5c0.4,0.4,1,0.4,1.5,0.1c0.2-0.2,0.3-0.4,0.4-0.6H3.6z"/>
			</g>
			<g id="패스_2_1_">
				<path class="st0" d="M8.9,74.5c0,0.5,0,0.7,0,0.9c0,0.4-0.2,0.7-0.4,1c-0.6,0.6-1.7,0.6-2.3,0c-0.2-0.2-0.3-0.5-0.3-0.7
					c0-0.4-0.1-0.8-0.1-1.2c0-0.5,0-0.7,0-0.9c0-0.3,0.2-0.7,0.4-0.9c0.6-0.6,1.7-0.6,2.3,0c0.2,0.2,0.3,0.4,0.4,0.7
					C8.9,73.8,9,74.1,8.9,74.5z M8.5,74.5c0-0.3,0-0.7-0.1-1c0-0.2-0.1-0.4-0.3-0.5c-0.4-0.5-1.1-0.5-1.5,0l0,0
					c-0.1,0.1-0.2,0.3-0.3,0.5c0,0.3-0.1,0.7,0,1c0,0.4,0,0.7,0,1c0,0.2,0.1,0.4,0.3,0.5c0.4,0.4,1.1,0.4,1.6,0l0,0
					c0.1-0.1,0.2-0.3,0.2-0.5C8.5,75.2,8.5,74.9,8.5,74.5L8.5,74.5z"/>
			</g>
			<g id="패스_3_1_">
				<path class="st0" d="M14.1,75.5c0,0.4-0.1,0.7-0.4,0.9c-0.3,0.2-0.7,0.4-1.1,0.3c-0.3,0-0.6,0-0.9-0.1c-0.3-0.1-0.5-0.3-0.7-0.5
					l0.3-0.3c0.2,0.2,0.4,0.3,0.6,0.4c0.2,0.1,0.4,0.1,0.7,0.1s0.6-0.1,0.8-0.2c0.2-0.2,0.3-0.4,0.3-0.6c0-0.3-0.1-0.6-0.4-0.7
					c-0.1,0-0.2-0.1-0.4-0.1h-0.6c-0.3,0-0.6-0.2-0.8-0.3c-0.2-0.2-0.4-0.5-0.3-0.8c0-0.4,0.1-0.7,0.4-0.9c0.3-0.2,0.7-0.4,1.1-0.3
					c0.2,0,0.5,0,0.7,0.1s0.4,0.2,0.6,0.4l-0.3,0.3c-0.1-0.1-0.3-0.2-0.5-0.3s-0.4-0.1-0.6-0.1c-0.2,0-0.5,0.1-0.7,0.2
					c-0.2,0.2-0.3,0.4-0.2,0.6c0,0.2,0.1,0.4,0.2,0.5c0.1,0.1,0.2,0.1,0.3,0.2c0.1,0,0.2,0.1,0.3,0.1l0.5,0.1c0.2,0,0.3,0.1,0.5,0.1
					c0.1,0,0.2,0.1,0.3,0.2C14,74.9,14.1,75.2,14.1,75.5z"/>
			</g>
			<g id="패스_4_1_">
				<path class="st0" d="M20.2,76.8h-0.5v-3.5L18.5,76h-0.4l-1.2-2.7v3.4h-0.5v-4.5h0.5l1.5,3.2l1.4-3.2h0.5L20.2,76.8z"/>
			</g>
			<g id="패스_5_1_">
				<path class="st0" d="M25.6,76.8h-2.8v-4.6h2.8v0.5h-2.3v1.6h2v0.4h-2v1.6h2.3V76.8z"/>
			</g>
			<g id="패스_6_1_">
				<path class="st0" d="M30.5,72.7h-1.3v4.1h-0.5v-4.1h-1.3v-0.5h3.1L30.5,72.7z"/>
			</g>
			<g id="패스_7_1_">
				<path class="st0" d="M33.1,76.8h-0.5v-4.6h0.5V76.8z"/>
			</g>
			<g id="패스_8_1_">
				<path class="st0" d="M38.7,75.5c0,0.4-0.2,0.7-0.5,1c-0.3,0.2-0.7,0.4-1,0.4c-0.4,0-0.8-0.2-1.2-0.5c-0.2-0.2-0.3-0.4-0.4-0.7
					c0-0.4-0.1-0.8-0.1-1.2c0-0.5,0-0.7,0-0.9c0-0.4,0.2-0.7,0.4-0.9c0.3-0.3,0.7-0.5,1.2-0.5c0.4,0,0.7,0.1,1,0.3
					c0.3,0.3,0.5,0.6,0.5,1h-0.5c0-0.3-0.2-0.5-0.4-0.7c-0.2-0.2-0.4-0.2-0.7-0.2s-0.6,0.1-0.8,0.3c-0.1,0.1-0.2,0.3-0.3,0.5
					c0.1,0.7,0.1,1.4,0.1,2.1c0,0.2,0.1,0.4,0.3,0.5c0.2,0.2,0.5,0.3,0.8,0.3s0.5-0.1,0.7-0.2c0.2-0.2,0.3-0.4,0.4-0.6H38.7z"/>
			</g>
			<g id="패스_9_1_">
				<path class="st0" d="M43.7,75.5c0,0.4-0.1,0.7-0.4,0.9c-0.3,0.3-0.7,0.4-1.1,0.4c-0.3,0-0.6,0-0.9-0.1c-0.3-0.1-0.5-0.3-0.7-0.5
					l0.3-0.3c0.2,0.2,0.3,0.3,0.5,0.4c0.2,0.1,0.5,0.1,0.7,0.1c0.3,0,0.5-0.1,0.8-0.2c0.2-0.2,0.3-0.4,0.3-0.6
					c0-0.3-0.2-0.6-0.4-0.7c-0.1,0-0.2-0.1-0.4-0.1l-0.5-0.1c-0.3,0-0.6-0.2-0.8-0.3c-0.2-0.2-0.4-0.5-0.3-0.8
					c0-0.4,0.1-0.7,0.4-0.9c0.3-0.2,0.7-0.4,1.1-0.3c0.2,0,0.5,0,0.7,0.1s0.4,0.2,0.6,0.4l-0.3,0.3c-0.1-0.1-0.3-0.2-0.5-0.3
					s-0.4-0.1-0.6-0.1c-0.2,0-0.5,0.1-0.7,0.2c-0.2,0.2-0.3,0.4-0.2,0.6c0,0.2,0.1,0.4,0.2,0.5c0.1,0.1,0.2,0.1,0.3,0.2
					c0.1,0,0.2,0.1,0.3,0.1l0.5,0.1c0.2,0,0.3,0.1,0.5,0.1c0.1,0,0.2,0.1,0.3,0.2C43.6,74.9,43.7,75.2,43.7,75.5z"/>
			</g>
			<g id="패스_10_1_">
				<path class="st0" d="M51.9,73.6c0,0.4-0.1,0.7-0.4,1c-0.3,0.2-0.6,0.4-1,0.4h-1.2v1.9h-0.5v-4.7h1.7c0.4,0,0.7,0.1,1,0.4
					C51.8,72.8,51.9,73.2,51.9,73.6z M51.4,73.6c0-0.2-0.1-0.5-0.3-0.7c-0.1-0.2-0.4-0.2-0.6-0.2h-1.2v1.8h1.2
					c0.2,0,0.5-0.1,0.7-0.2C51.3,74.1,51.5,73.8,51.4,73.6L51.4,73.6z"/>
			</g>
			<g id="패스_11_1_">
				<path class="st0" d="M56.9,76.8h-2.8v-4.6h0.5v4.1h2.3V76.8z"/>
			</g>
			<g id="패스_12_1_">
				<path class="st0" d="M62.2,76.8h-0.5l-0.3-1h-2l-0.4,1h-0.5l1.7-4.5h0.4L62.2,76.8z M61.1,75.3l-0.8-2.4l-0.8,2.4H61.1z"/>
			</g>
			<g id="패스_13_1_">
				<path class="st0" d="M66.8,72.7h-1.3v4.1H65v-4.1h-1.3v-0.5h3.1V72.7z"/>
			</g>
			<g id="패스_14_1_">
				<path class="st0" d="M71.7,72.7h-2.3v1.7h2v0.4h-2v2h-0.5v-4.6h2.8V72.7z"/>
			</g>
			<g id="패스_15_1_">
				<path class="st0" d="M76.8,74.5c0,0.5,0,0.7,0,0.9c0,0.3-0.2,0.7-0.4,0.9c-0.6,0.6-1.7,0.6-2.3,0c-0.2-0.2-0.3-0.4-0.4-0.7
					c-0.1-0.4-0.1-0.8-0.1-1.2c0-0.5,0-0.7,0-0.9c0-0.4,0.2-0.7,0.4-0.9c0.6-0.6,1.7-0.6,2.3,0c0.2,0.2,0.3,0.4,0.4,0.7
					C76.8,73.8,76.8,74.1,76.8,74.5z M76.3,74.5c0-0.3,0-0.7-0.1-1c0-0.2-0.1-0.4-0.3-0.5c-0.4-0.4-1.1-0.4-1.6,0l0,0
					c-0.1,0.1-0.2,0.3-0.3,0.5c0,0.3-0.1,0.7-0.1,1s0,0.7,0.1,1c0,0.2,0.1,0.4,0.3,0.5c0.4,0.4,1.1,0.4,1.6,0l0,0
					c0.1-0.1,0.2-0.3,0.3-0.5C76.3,75.2,76.3,74.9,76.3,74.5L76.3,74.5z"/>
			</g>
			<g id="패스_16_1_">
				<path class="st0" d="M82.4,76.8h-0.6l-1-2h-1.1v2h-0.5v-4.6H81c0.3,0,0.7,0.1,1,0.3c0.2,0.2,0.4,0.6,0.4,0.9
					c0,0.3-0.1,0.6-0.3,0.8c-0.2,0.3-0.5,0.5-0.8,0.5L82.4,76.8z M81.8,73.5c0-0.2-0.1-0.5-0.2-0.6c-0.2-0.2-0.4-0.2-0.7-0.2h-1.2
					v1.7h1.2c0.2,0,0.5-0.1,0.7-0.2C81.7,74,81.8,73.7,81.8,73.5L81.8,73.5z"/>
			</g>
			<g id="패스_17_1_">
				<path class="st0" d="M88.5,76.8H88v-3.5L86.8,76h-0.4l-1.2-2.7v3.4h-0.5v-4.5h0.5l1.5,3.2l1.4-3.2h0.5
					C88.5,72.2,88.5,76.8,88.5,76.8z"/>
			</g>
		</g>
		<g id="그룹_2_1_" transform="translate(0 7.709)">
			<g id="패스_18_1_">
				<path class="st0" d="M18.2,94.6c-2,0.9-4.3,1.3-6.5,1.2c-3.1,0.2-6-1-8.2-3.1c-2.1-2.2-3.2-5.2-3-8.2c-0.2-3.3,1.1-6.5,3.4-8.9
					c2.3-2.3,5.5-3.5,8.8-3.4c1.9-0.1,3.8,0.2,5.6,0.8v4.9c-1.6-0.9-3.4-1.4-5.2-1.4c-1.9-0.1-3.8,0.7-5.2,2C6.5,80,5.8,82,5.9,84
					c-0.1,1.9,0.6,3.8,1.9,5.3c1.3,1.3,3.1,2,5,2s3.8-0.5,5.5-1.5L18.2,94.6z"/>
			</g>
			<g id="패스_19_1_">
				<path class="st0" d="M31,95.8c-3,0.1-5.9-1-8-3.2c-2.1-2.2-3.2-5.2-3.1-8.3c-0.1-3.2,1-6.3,3.1-8.7c2.1-2.2,5.2-3.5,8.3-3.3
					c3-0.1,5.8,1,7.9,3.2c2.1,2.3,3.2,5.3,3,8.4c0.2,3.2-1,6.3-3.1,8.6C37,94.7,34.1,95.9,31,95.8z M31.2,76.6
					c-1.7-0.1-3.3,0.7-4.3,2c-1.1,1.5-1.7,3.4-1.6,5.4c-0.1,1.9,0.5,3.8,1.6,5.3c1,1.3,2.5,2,4.2,2c1.6,0.1,3.2-0.6,4.2-1.9
					c1.1-1.5,1.7-3.4,1.6-5.3c0.1-1.9-0.4-3.9-1.5-5.5C34.4,77.3,32.9,76.6,31.2,76.6L31.2,76.6z"/>
			</g>
			<g id="패스_20_1_">
				<path class="st0" d="M44.2,94.5v-5.1c0.9,0.8,1.9,1.3,3,1.7c1,0.4,2.2,0.6,3.3,0.6c0.6,0,1.1,0,1.7-0.2c0.4-0.1,0.8-0.3,1.2-0.5
					c0.3-0.2,0.5-0.4,0.7-0.7c0.2-0.3,0.2-0.6,0.2-0.9c0-0.4-0.1-0.9-0.4-1.2c-0.3-0.4-0.6-0.7-1-1c-0.5-0.3-1-0.6-1.6-0.9
					c-0.6-0.3-1.2-0.6-2-0.8c-1.5-0.6-2.9-1.5-4-2.7c-0.9-1.1-1.3-2.5-1.3-3.9c0-1.1,0.2-2.1,0.7-3.1c0.5-0.8,1.1-1.6,2-2.1
					c0.9-0.6,1.8-1,2.8-1.2c1.1-0.3,2.3-0.4,3.4-0.4c1,0,2.1,0.1,3.2,0.2c0.9,0.1,1.7,0.3,2.5,0.7v4.8c-0.4-0.3-0.8-0.5-1.2-0.7
					c-0.5-0.2-0.9-0.4-1.4-0.5c-0.5-0.1-0.9-0.2-1.4-0.3c-0.4-0.1-0.9-0.1-1.3-0.1c-0.5,0-1.1,0.1-1.6,0.2c-0.4,0.1-0.8,0.2-1.2,0.5
					c-0.3,0.2-0.6,0.4-0.8,0.7c-0.2,0.3-0.3,0.6-0.3,0.9c0,0.4,0.1,0.7,0.3,1s0.5,0.6,0.9,0.9c0.5,0.3,0.9,0.6,1.4,0.8
					c0.5,0.3,1.1,0.5,1.8,0.8c0.8,0.4,1.7,0.8,2.5,1.2c0.7,0.4,1.3,0.9,1.9,1.4c0.5,0.5,0.9,1.2,1.2,1.9c0.6,1.8,0.5,3.9-0.3,5.6
					c-0.5,0.9-1.1,1.6-2,2.1c-0.9,0.6-1.9,1-2.9,1.1c-1.1,0.2-2.3,0.4-3.5,0.4s-2.4-0.1-3.6-0.3C46.1,95.3,45.1,94.9,44.2,94.5z"/>
			</g>
		</g>
		<g id="패스_21_1_">
			<path class="st0" d="M110.5,72.4c-4.4,0-8,1.3-10.5,3.8c-2.2,2.2-3.6,5.1-4.2,8.1c3.4-4.7,10.5-4.6,10.5-4.6
				c11-0.3,14.4-5.5,15.3-7.4L110.5,72.4L110.5,72.4z"/>
		</g>
		<g id="그룹_3_1_" transform="translate(94.998 0)">
			<g id="패스_22_1_">
				<path class="st0" d="M4.2,75.5c1.5-1.5,3.4-2.6,5.5-3.3H0.5v9.3C1.3,79.2,2.5,77.2,4.2,75.5z"/>
			</g>
			<g id="패스_23_1_">
				<path class="st0" d="M18,80l-9.4,22.4h3.2l9.7-23.7C20.4,79.2,19.2,79.6,18,80z"/>
			</g>
		</g>
		<g id="패스_24_1_">
			<path class="st0" d="M107.5,80.9l-10.7,25.3h3.2l10.8-25.8L107.5,80.9z"/>
		</g>
		<g id="패스_25_1_">
			<path class="st0" d="M98,98.4h-5.6v-18h-5.2l-11.3,18h-7.5c0.4-0.3,0.8-0.7,1.2-1c0.4-0.3,0.8-0.6,1.3-1c1.3-0.9,2.5-1.9,3.9-2.9
				c1.3-0.9,2.4-2,3.4-3.3c1-1.3,1.6-2.9,1.6-4.6c0-1.1-0.2-2.1-0.7-3c-0.4-0.9-1.1-1.6-1.9-2.2s-1.8-1.1-2.7-1.3
				c-1.1-0.3-2.2-0.5-3.3-0.5c-2.1-0.1-4.2,0.6-5.9,1.8c-0.8,0.6-1.5,1.3-2,2.1c-0.5,0.9-0.9,1.9-1.1,2.9l4.8,1
				c0.2-1,0.7-1.9,1.4-2.7c0.8-0.7,1.9-1.1,2.9-1.1c0.8,0,1.7,0.2,2.4,0.7c0.6,0.5,1,1.3,0.9,2.1c0,0.6-0.2,1.1-0.5,1.6
				c-0.4,0.6-0.8,1.1-1.3,1.6s-1,1-1.6,1.5c-0.6,0.4-1,0.8-1.4,1.1c-0.9,0.7-1.8,1.3-2.6,2c-0.8,0.6-1.6,1.2-2.3,1.8
				c-0.7,0.5-1.3,1.1-1.8,1.7c-0.4,0.5-0.7,1.1-0.9,1.7v4.2H87v2.4h5.4v-2.4h3.8L98,98.4z M81.2,98.5l5.9-10.2v10.2H81.2z"/>
		</g>
	</g>
</g>
<text transform="matrix(1 0 0 1 122.6001 102.4173)" class="st0" style="font-family:'MotivaSans-Bold'; font-size:29px;">Back Office</text>
</svg>
