<?xml version="1.0" encoding="utf-8"?>
<!-- Generator: Adobe Illustrator 26.3.1, SVG Export Plug-In . SVG Version: 6.00 Build 0)  -->
<svg version="1.1" id="레이어_1" xmlns="http://www.w3.org/2000/svg" xmlns:xlink="http://www.w3.org/1999/xlink" x="0px"
	 y="0px" viewBox="0 0 295.8 35" style="enable-background:new 0 0 295.8 35;" xml:space="preserve">
<style type="text/css">
	.st0{fill:#404040;}
</style>
<g id="LOGO" transform="translate(-605 -360)">
	<g id="그룹_4" transform="translate(605 360)">
		<g id="그룹_1" transform="translate(3.752 0.471)">
			<g id="패스_1">
				<path class="st0" d="M3.6,3.8c-0.1,0.4-0.2,0.7-0.5,1C2.8,5,2.4,5.1,2.1,5.1c-0.4,0-0.9-0.2-1.2-0.5C0.7,4.5,0.6,4.2,0.6,4
					C0.5,3.6,0.5,3.2,0.5,2.8c0-0.5,0-0.7,0-0.9c0-0.4,0.2-0.7,0.4-0.9C1.2,0.7,1.6,0.5,2,0.5s0.7,0.1,1,0.4s0.5,0.6,0.5,1H3.1
					c0-0.3-0.2-0.5-0.4-0.7C2.6,1,2.3,0.9,2.1,0.9C1.8,0.9,1.5,1,1.3,1.3C1.2,1.4,1.1,1.6,1,1.8c0,0.7,0,1.4,0,2
					C1,4,1.1,4.2,1.3,4.3c0.4,0.4,1,0.4,1.5,0.1C3,4.2,3.1,4,3.2,3.8H3.6z"/>
			</g>
			<g id="패스_2">
				<path class="st0" d="M8.9,2.8c0,0.5,0,0.7,0,0.9c0,0.4-0.2,0.7-0.4,1c-0.6,0.6-1.7,0.6-2.3,0C6,4.5,5.9,4.2,5.9,4
					c0-0.4-0.1-0.8-0.1-1.2c0-0.5,0-0.7,0-0.9C5.8,1.6,6,1.2,6.2,1c0.6-0.6,1.7-0.6,2.3,0c0.2,0.2,0.3,0.4,0.4,0.7
					C8.9,2.1,9,2.4,8.9,2.8z M8.5,2.8c0-0.3,0-0.7-0.1-1c0-0.2-0.1-0.4-0.3-0.5C7.7,0.8,7,0.8,6.6,1.3l0,0C6.5,1.4,6.4,1.6,6.3,1.8
					c0,0.3-0.1,0.7,0,1c0,0.4,0,0.7,0,1c0,0.2,0.1,0.4,0.3,0.5c0.4,0.4,1.1,0.4,1.6,0l0,0C8.3,4.2,8.4,4,8.4,3.8
					C8.5,3.5,8.5,3.2,8.5,2.8L8.5,2.8z"/>
			</g>
			<g id="패스_3">
				<path class="st0" d="M14.1,3.8c0,0.4-0.1,0.7-0.4,0.9C13.4,4.9,13,5.1,12.6,5c-0.3,0-0.6,0-0.9-0.1c-0.3-0.1-0.5-0.3-0.7-0.5
					l0.3-0.3c0.2,0.2,0.4,0.3,0.6,0.4c0.2,0.1,0.4,0.1,0.7,0.1s0.6-0.1,0.8-0.2c0.2-0.2,0.3-0.4,0.3-0.6c0-0.3-0.1-0.6-0.4-0.7
					c-0.1,0-0.2-0.1-0.4-0.1h-0.6c-0.3,0-0.6-0.2-0.8-0.3c-0.2-0.2-0.4-0.5-0.3-0.8c0-0.4,0.1-0.7,0.4-0.9c0.3-0.2,0.7-0.4,1.1-0.3
					c0.2,0,0.5,0,0.7,0.1S13.8,1,14,1.2l-0.3,0.3c-0.1-0.1-0.3-0.2-0.5-0.3c-0.2-0.1-0.4-0.1-0.6-0.1c-0.2,0-0.5,0.1-0.7,0.2
					c-0.2,0.2-0.3,0.4-0.2,0.6c0,0.2,0.1,0.4,0.2,0.5c0.1,0.1,0.2,0.1,0.3,0.2c0.1,0,0.2,0.1,0.3,0.1L13,2.8c0.2,0,0.3,0.1,0.5,0.1
					c0.1,0,0.2,0.1,0.3,0.2C14,3.2,14.1,3.5,14.1,3.8z"/>
			</g>
			<g id="패스_4">
				<path class="st0" d="M20.2,5.1h-0.5V1.6l-1.2,2.7h-0.4l-1.2-2.7V5h-0.5V0.5h0.5l1.5,3.2l1.4-3.2h0.5L20.2,5.1z"/>
			</g>
			<g id="패스_5">
				<path class="st0" d="M25.6,5.1h-2.8V0.5h2.8V1h-2.3v1.6h2V3h-2v1.6h2.3V5.1z"/>
			</g>
			<g id="패스_6">
				<path class="st0" d="M30.5,1h-1.3v4.1h-0.5V1h-1.3V0.5h3.1L30.5,1z"/>
			</g>
			<g id="패스_7">
				<path class="st0" d="M33.1,5.1h-0.5V0.5h0.5V5.1z"/>
			</g>
			<g id="패스_8">
				<path class="st0" d="M38.7,3.8c0,0.4-0.2,0.7-0.5,1c-0.3,0.2-0.7,0.4-1,0.4c-0.4,0-0.8-0.2-1.2-0.5c-0.2-0.2-0.3-0.4-0.4-0.7
					c0-0.4-0.1-0.8-0.1-1.2c0-0.5,0-0.7,0-0.9c0-0.4,0.2-0.7,0.4-0.9c0.3-0.3,0.7-0.5,1.2-0.5c0.4,0,0.7,0.1,1,0.3
					c0.3,0.3,0.5,0.6,0.5,1h-0.5c0-0.3-0.2-0.5-0.4-0.7S37.3,0.9,37,0.9S36.4,1,36.2,1.2c-0.1,0.1-0.2,0.3-0.3,0.5
					C36,2.4,36,3.1,36,3.8c0,0.2,0.1,0.4,0.3,0.5c0.2,0.2,0.5,0.3,0.8,0.3s0.5-0.1,0.7-0.2C38,4.2,38.1,4,38.2,3.8H38.7z"/>
			</g>
			<g id="패스_9">
				<path class="st0" d="M43.7,3.8c0,0.4-0.1,0.7-0.4,0.9C43,5,42.6,5.1,42.2,5.1c-0.3,0-0.6,0-0.9-0.1c-0.3-0.1-0.5-0.3-0.7-0.5
					l0.3-0.3c0.2,0.2,0.3,0.3,0.5,0.4s0.5,0.1,0.7,0.1c0.3,0,0.5-0.1,0.8-0.2c0.2-0.2,0.3-0.4,0.3-0.6c0-0.3-0.2-0.6-0.4-0.7
					c-0.1,0-0.2-0.1-0.4-0.1L41.9,3c-0.3,0-0.6-0.2-0.8-0.3c-0.2-0.2-0.4-0.5-0.3-0.8c0-0.4,0.1-0.7,0.4-0.9
					c0.3-0.2,0.7-0.4,1.1-0.3c0.2,0,0.5,0,0.7,0.1s0.4,0.2,0.6,0.4l-0.3,0.3c-0.1-0.1-0.3-0.2-0.5-0.3c-0.2-0.1-0.4-0.1-0.6-0.1
					c-0.2,0-0.5,0.1-0.7,0.2c-0.2,0.2-0.3,0.4-0.2,0.6c0,0.2,0.1,0.4,0.2,0.5c0.1,0.1,0.2,0.1,0.3,0.2c0.1,0,0.2,0.1,0.3,0.1
					l0.5,0.1c0.2,0,0.3,0.1,0.5,0.1c0.1,0,0.2,0.1,0.3,0.2C43.6,3.2,43.7,3.5,43.7,3.8z"/>
			</g>
			<g id="패스_10">
				<path class="st0" d="M51.9,1.9c0,0.4-0.1,0.7-0.4,1c-0.3,0.2-0.6,0.4-1,0.4h-1.2v1.9h-0.5V0.5h1.7c0.4,0,0.7,0.1,1,0.4
					C51.8,1.1,51.9,1.5,51.9,1.9z M51.4,1.9c0-0.2-0.1-0.5-0.3-0.7C51,1,50.7,1,50.5,1h-1.2v1.8h1.2c0.2,0,0.5-0.1,0.7-0.2
					C51.3,2.4,51.5,2.1,51.4,1.9L51.4,1.9z"/>
			</g>
			<g id="패스_11">
				<path class="st0" d="M56.9,5.1h-2.8V0.5h0.5v4.1h2.3V5.1z"/>
			</g>
			<g id="패스_12">
				<path class="st0" d="M62.2,5.1h-0.5l-0.3-1h-2l-0.4,1h-0.5l1.7-4.5h0.4L62.2,5.1z M61.1,3.6l-0.8-2.4l-0.8,2.4H61.1z"/>
			</g>
			<g id="패스_13">
				<path class="st0" d="M66.8,1h-1.3v4.1H65V1h-1.3V0.5h3.1V1z"/>
			</g>
			<g id="패스_14">
				<path class="st0" d="M71.7,1h-2.3v1.7h2v0.4h-2v2h-0.5V0.5h2.8V1z"/>
			</g>
			<g id="패스_15">
				<path class="st0" d="M76.8,2.8c0,0.5,0,0.7,0,0.9c0,0.3-0.2,0.7-0.4,0.9c-0.6,0.6-1.7,0.6-2.3,0c-0.2-0.2-0.3-0.4-0.4-0.7
					c-0.1-0.4-0.1-0.8-0.1-1.2c0-0.5,0-0.7,0-0.9c0-0.4,0.2-0.7,0.4-0.9c0.6-0.6,1.7-0.6,2.3,0c0.2,0.2,0.3,0.4,0.4,0.7
					C76.8,2.1,76.8,2.4,76.8,2.8z M76.3,2.8c0-0.3,0-0.7-0.1-1c0-0.2-0.1-0.4-0.3-0.5c-0.4-0.4-1.1-0.4-1.6,0l0,0
					c-0.1,0.1-0.2,0.3-0.3,0.5c0,0.3-0.1,0.7-0.1,1s0,0.7,0.1,1c0,0.2,0.1,0.4,0.3,0.5c0.4,0.4,1.1,0.4,1.6,0l0,0
					C76,4.2,76.1,4,76.2,3.8C76.3,3.5,76.3,3.2,76.3,2.8L76.3,2.8z"/>
			</g>
			<g id="패스_16">
				<path class="st0" d="M82.4,5.1h-0.6l-1-2h-1.1v2h-0.5V0.5H81c0.3,0,0.7,0.1,1,0.3c0.2,0.2,0.4,0.6,0.4,0.9s-0.1,0.6-0.3,0.8
					C81.9,2.8,81.6,3,81.3,3L82.4,5.1z M81.8,1.8c0-0.2-0.1-0.5-0.2-0.6C81.4,1,81.2,1,80.9,1h-1.2v1.7h1.2c0.2,0,0.5-0.1,0.7-0.2
					C81.7,2.3,81.8,2,81.8,1.8L81.8,1.8z"/>
			</g>
			<g id="패스_17">
				<path class="st0" d="M88.5,5.1H88V1.6l-1.2,2.7h-0.4l-1.2-2.7V5h-0.5V0.5h0.5l1.5,3.2l1.4-3.2h0.5C88.5,0.5,88.5,5.1,88.5,5.1z"
					/>
			</g>
		</g>
		<g id="그룹_2" transform="translate(0 7.709)">
			<g id="패스_18">
				<path class="st0" d="M18.2,22.9c-2,0.9-4.3,1.3-6.5,1.2c-3.1,0.2-6-1-8.2-3.1c-2.1-2.2-3.2-5.2-3-8.2C0.3,9.5,1.6,6.3,3.9,3.9
					c2.3-2.3,5.5-3.5,8.8-3.4c1.9-0.1,3.8,0.2,5.6,0.8v4.9c-1.6-0.9-3.4-1.4-5.2-1.4c-1.9-0.1-3.8,0.7-5.2,2c-1.4,1.5-2.1,3.5-2,5.5
					c-0.1,1.9,0.6,3.8,1.9,5.3c1.3,1.3,3.1,2,5,2s3.8-0.5,5.5-1.5L18.2,22.9z"/>
			</g>
			<g id="패스_19">
				<path class="st0" d="M31,24.1c-3,0.1-5.9-1-8-3.2s-3.2-5.2-3.1-8.3c-0.1-3.2,1-6.3,3.1-8.7c2.1-2.2,5.2-3.5,8.3-3.3
					c3-0.1,5.8,1,7.9,3.2c2.1,2.3,3.2,5.3,3,8.4c0.2,3.2-1,6.3-3.1,8.6C37,23,34.1,24.2,31,24.1z M31.2,4.9c-1.7-0.1-3.3,0.7-4.3,2
					c-1.1,1.5-1.7,3.4-1.6,5.4c-0.1,1.9,0.5,3.8,1.6,5.3c1,1.3,2.5,2,4.2,2c1.6,0.1,3.2-0.6,4.2-1.9c1.1-1.5,1.7-3.4,1.6-5.3
					c0.1-1.9-0.4-3.9-1.5-5.5C34.4,5.6,32.9,4.9,31.2,4.9L31.2,4.9z"/>
			</g>
			<g id="패스_20">
				<path class="st0" d="M44.2,22.8v-5.1c0.9,0.8,1.9,1.3,3,1.7c1,0.4,2.2,0.6,3.3,0.6c0.6,0,1.1,0,1.7-0.2c0.4-0.1,0.8-0.3,1.2-0.5
					c0.3-0.2,0.5-0.4,0.7-0.7c0.2-0.3,0.2-0.6,0.2-0.9c0-0.4-0.1-0.9-0.4-1.2c-0.3-0.4-0.6-0.7-1-1c-0.5-0.3-1-0.6-1.6-0.9
					c-0.6-0.3-1.2-0.6-2-0.8c-1.5-0.6-2.9-1.5-4-2.7C44.4,10,44,8.6,44,7.2c0-1.1,0.2-2.1,0.7-3.1c0.5-0.8,1.1-1.6,2-2.1
					c0.9-0.6,1.8-1,2.8-1.2c1.1-0.3,2.3-0.4,3.4-0.4c1,0,2.1,0.1,3.2,0.2c0.9,0.1,1.7,0.3,2.5,0.7v4.8c-0.4-0.3-0.8-0.5-1.2-0.7
					C56.9,5.2,56.5,5,56,4.9s-0.9-0.2-1.4-0.3c-0.4-0.1-0.9-0.1-1.3-0.1c-0.5,0-1.1,0.1-1.6,0.2c-0.4,0.1-0.8,0.2-1.2,0.5
					c-0.3,0.2-0.6,0.4-0.8,0.7c-0.2,0.3-0.3,0.6-0.3,0.9c0,0.4,0.1,0.7,0.3,1c0.2,0.3,0.5,0.6,0.9,0.9C51.1,9,51.5,9.3,52,9.5
					c0.5,0.3,1.1,0.5,1.8,0.8c0.8,0.4,1.7,0.8,2.5,1.2c0.7,0.4,1.3,0.9,1.9,1.4c0.5,0.5,0.9,1.2,1.2,1.9c0.6,1.8,0.5,3.9-0.3,5.6
					c-0.5,0.9-1.1,1.6-2,2.1c-0.9,0.6-1.9,1-2.9,1.1c-1.1,0.2-2.3,0.4-3.5,0.4s-2.4-0.1-3.6-0.3C46.1,23.6,45.1,23.2,44.2,22.8z"/>
			</g>
		</g>
		<g id="패스_21">
			<path class="st0" d="M110.5,0.7c-4.4,0-8,1.3-10.5,3.8c-2.2,2.2-3.6,5.1-4.2,8.1C99.2,7.9,106.3,8,106.3,8
				c11-0.3,14.4-5.5,15.3-7.4L110.5,0.7L110.5,0.7z"/>
		</g>
		<g id="그룹_3" transform="translate(94.998 0)">
			<g id="패스_22">
				<path class="st0" d="M4.2,3.8c1.5-1.5,3.4-2.6,5.5-3.3H0.5v9.3C1.3,7.5,2.5,5.5,4.2,3.8z"/>
			</g>
			<g id="패스_23">
				<path class="st0" d="M18,8.3L8.6,30.7h3.2L21.5,7C20.4,7.5,19.2,7.9,18,8.3z"/>
			</g>
		</g>
		<g id="패스_24">
			<path class="st0" d="M107.5,9.2L96.8,34.5h3.2l10.8-25.8L107.5,9.2z"/>
		</g>
		<g id="패스_25">
			<path class="st0" d="M98,26.7h-5.6v-18h-5.2l-11.3,18h-7.5c0.4-0.3,0.8-0.7,1.2-1s0.8-0.6,1.3-1c1.3-0.9,2.5-1.9,3.9-2.9
				c1.3-0.9,2.4-2,3.4-3.3s1.6-2.9,1.6-4.6c0-1.1-0.2-2.1-0.7-3C78.7,10,78,9.3,77.2,8.7s-1.8-1.1-2.7-1.3c-1.1-0.3-2.2-0.5-3.3-0.5
				c-2.1-0.1-4.2,0.6-5.9,1.8c-0.8,0.6-1.5,1.3-2,2.1c-0.5,0.9-0.9,1.9-1.1,2.9l4.8,1c0.2-1,0.7-1.9,1.4-2.7
				c0.8-0.7,1.9-1.1,2.9-1.1c0.8,0,1.7,0.2,2.4,0.7c0.6,0.5,1,1.3,0.9,2.1c0,0.6-0.2,1.1-0.5,1.6c-0.4,0.6-0.8,1.1-1.3,1.6
				s-1,1-1.6,1.5c-0.6,0.4-1,0.8-1.4,1.1c-0.9,0.7-1.8,1.3-2.6,2c-0.8,0.6-1.6,1.2-2.3,1.8c-0.7,0.5-1.3,1.1-1.8,1.7
				c-0.4,0.5-0.7,1.1-0.9,1.7v4.2H87v2.4h5.4v-2.4h3.8L98,26.7z M81.2,26.8l5.9-10.2v10.2H81.2z"/>
		</g>
	</g>
</g>
<text transform="matrix(1 0 0 1 119.9238 -62.954)" style="font-family:'MotivaSans-Bold'; font-size:33.8221px;">Biz. portal</text>
<g>
	<path class="st0" d="M144.4,24.6c0,1.8-0.7,3.3-2,4.3c-1.3,1-3.1,1.5-5.4,1.5h-8.3V10.1h7.5c2.4,0,4.1,0.4,5.3,1.3s1.7,2.1,1.7,3.8
		c0,0.9-0.2,1.7-0.6,2.5c-0.4,0.8-1.1,1.4-2.1,1.9C143.1,20.4,144.4,22,144.4,24.6z M133.1,18.6h2.9c1,0,1.7-0.2,2.2-0.7
		c0.5-0.5,0.8-1.1,0.8-1.9c0-1.6-1-2.3-3.1-2.3h-2.8V18.6z M139.1,26.2c0.6-0.5,0.8-1.1,0.8-1.9c0-0.8-0.3-1.5-0.8-1.9
		c-0.5-0.4-1.3-0.7-2.3-0.7h-3.7v5.2h3.6C137.7,26.9,138.5,26.6,139.1,26.2z"/>
	<path class="st0" d="M161.5,27.5l-0.3,2.7c-0.4,0.4-1.2,0.6-2.1,0.6c-1.5,0-2.4-0.7-2.8-2c-1.2,1.4-2.7,2.1-4.6,2.1
		c-0.9,0-1.8-0.2-2.6-0.6c-0.8-0.4-1.4-0.9-1.9-1.6s-0.7-1.5-0.7-2.5c0-1.5,0.6-2.6,1.7-3.4c1.1-0.8,2.6-1.2,4.3-1.2
		c0.5,0,1.1,0,1.7,0.1c0.6,0.1,1.1,0.1,1.4,0.2v-1.2c0-1.8-1-2.6-3-2.6c-0.7,0-1.4,0.1-2.1,0.4c-0.7,0.3-1.3,0.6-1.9,1l-1.5-2.5
		c0.8-0.7,1.7-1.2,2.8-1.6c1.1-0.4,2.2-0.6,3.3-0.6c2.1,0,3.8,0.5,4.8,1.5c1.1,1,1.6,2.4,1.6,4.2v6.1c0,0.7,0.3,1.1,0.8,1.1
		C161.1,27.6,161.4,27.5,161.5,27.5z M154.5,27.4c0.6-0.3,1-0.8,1.3-1.3v-1.7c-0.9-0.2-1.8-0.3-2.7-0.3c-0.8,0-1.4,0.2-1.9,0.5
		c-0.5,0.3-0.8,0.8-0.8,1.5c0,0.6,0.2,1.1,0.6,1.4c0.4,0.3,0.9,0.5,1.6,0.5C153.3,27.8,154,27.7,154.5,27.4z"/>
	<path class="st0" d="M173.6,15.2c0.9,0.3,1.8,0.8,2.5,1.4l-1.6,2.8c-1-0.8-2.1-1.2-3.4-1.2c-1.2,0-2.2,0.4-2.9,1.2
		s-1.1,1.9-1.1,3.3s0.4,2.5,1.1,3.4s1.7,1.3,2.9,1.3c0.7,0,1.3-0.1,1.9-0.3c0.6-0.2,1.2-0.6,1.7-1l1.7,2.6c-0.7,0.7-1.5,1.2-2.5,1.6
		s-2,0.6-3.2,0.6c-1.5,0-2.8-0.3-4-1c-1.2-0.6-2.1-1.6-2.8-2.8s-1-2.7-1-4.4c0-1.7,0.3-3.1,1-4.3c0.7-1.2,1.6-2.1,2.8-2.7
		c1.2-0.6,2.5-0.9,3.9-0.9C171.7,14.7,172.7,14.9,173.6,15.2z"/>
	<path class="st0" d="M188.8,30.4l-4.3-6.1l-1.5,1.7v4.4h-4.1V8.6h4.1v12.6l4.9-6h4.8l-5.7,6.2l6.5,9H188.8z"/>
	<path class="st0" d="M205.1,15.6c1.2,0.6,2.1,1.5,2.9,2.7c0.7,1.2,1.1,2.7,1.1,4.5c0,1.8-0.4,3.3-1.1,4.5c-0.7,1.2-1.7,2.1-2.9,2.7
		c-1.2,0.6-2.5,0.9-3.9,0.9c-1.4,0-2.7-0.3-3.9-0.9c-1.2-0.6-2.1-1.5-2.9-2.7s-1.1-2.7-1.1-4.5c0-1.8,0.4-3.3,1.1-4.5
		c0.7-1.2,1.7-2.1,2.9-2.7c1.2-0.6,2.5-0.9,3.9-0.9C202.6,14.7,203.9,15,205.1,15.6z M198.5,19.5c-0.6,0.8-1,1.9-1,3.3
		s0.3,2.5,1,3.3s1.6,1.2,2.7,1.2s2.1-0.4,2.7-1.2s1-1.9,1-3.3s-0.3-2.5-1-3.3s-1.6-1.2-2.7-1.2S199.1,18.7,198.5,19.5z"/>
	<path class="st0" d="M221,8.6l-0.6,2.9c-0.5-0.1-1-0.2-1.6-0.2c-1.3,0-1.9,0.6-1.9,1.8v2.1h3.4v3.5h-3.4v11.7h-4.1V18.7h-2.1v-3.5
		h2.1V13c0-1.5,0.5-2.7,1.4-3.6c0.9-0.9,2.2-1.3,4-1.3C219.4,8.1,220.3,8.3,221,8.6z"/>
	<path class="st0" d="M232.1,8.6l-0.6,2.9c-0.5-0.1-1-0.2-1.6-0.2c-1.3,0-1.9,0.6-1.9,1.8v2.1h3.4v3.5h-3.4v11.7H224V18.7h-2.1v-3.5
		h2.1V13c0-1.5,0.5-2.7,1.4-3.6c0.9-0.9,2.2-1.3,4-1.3C230.5,8.1,231.4,8.3,232.1,8.6z M238.8,9.4c0.5,0.4,0.7,0.9,0.7,1.6
		c0,0.7-0.2,1.3-0.7,1.6s-1,0.6-1.7,0.6c-0.7,0-1.2-0.2-1.7-0.6s-0.7-0.9-0.7-1.6c0-0.7,0.2-1.3,0.7-1.6s1-0.6,1.7-0.6
		C237.7,8.8,238.3,9,238.8,9.4z M239.1,30.4H235V15.2h4.1V30.4z"/>
	<path class="st0" d="M252.8,15.2c0.9,0.3,1.8,0.8,2.5,1.4l-1.6,2.8c-1-0.8-2.1-1.2-3.4-1.2c-1.2,0-2.2,0.4-2.9,1.2
		s-1.1,1.9-1.1,3.3s0.4,2.5,1.1,3.4s1.7,1.3,2.9,1.3c0.7,0,1.3-0.1,1.9-0.3c0.6-0.2,1.2-0.6,1.7-1l1.7,2.6c-0.7,0.7-1.5,1.2-2.5,1.6
		s-2,0.6-3.2,0.6c-1.5,0-2.8-0.3-4-1c-1.2-0.6-2.1-1.6-2.8-2.8s-1-2.7-1-4.4c0-1.7,0.3-3.1,1-4.3c0.7-1.2,1.6-2.1,2.8-2.7
		c1.2-0.6,2.5-0.9,3.9-0.9C250.9,14.7,251.9,14.9,252.8,15.2z"/>
	<path class="st0" d="M269.4,26.2l1.5,2.6c-1.7,1.3-3.8,2-6.4,2c-1.5,0-2.8-0.3-4-0.9c-1.2-0.6-2.1-1.5-2.8-2.7
		c-0.7-1.2-1-2.7-1-4.4c0-1.6,0.3-3,0.9-4.2c0.6-1.2,1.5-2.2,2.6-2.9s2.4-1,3.9-1c1.5,0,2.8,0.3,3.8,1c1,0.7,1.8,1.5,2.3,2.6
		c0.5,1.1,0.8,2.3,0.8,3.5c0,0.8-0.1,1.6-0.2,2.2h-10c0.4,2.4,1.8,3.6,4.2,3.6C266.6,27.7,268.1,27.2,269.4,26.2z M260.7,21.4h6.6
		c0-1.2-0.3-2.1-0.8-2.7c-0.5-0.6-1.3-0.9-2.2-0.9C262.2,17.8,261,19,260.7,21.4z"/>
</g>
</svg>
